<svg xmlns="http://www.w3.org/2000/svg" width="184" height="48" viewBox="0 0 184 48" fill="none" role="img" aria-labelledby="logoTitle logoDesc">
  <title id="logoTitle">KA SaaS logo</title>
  <desc id="logoDesc">KA harflerinden oluşan renkli işaret ve yanında KA SaaS yazısı.</desc>
  <rect width="48" height="48" rx="16" fill="url(#paint0_linear)" />
  <path d="M15 33V15H19.2V22.6L26.28 15H31.62L24.12 22.98L32.1 33H26.82L21.21 25.83L19.2 27.93V33H15Z" fill="white"/>
  <path d="M36.4 34.2L32.14 21.42H35.86L38.64 30.48L41.42 21.42H45.08L40.88 34.2H36.4Z" fill="white"/>
  <path d="M64 15H69.08L77.18 33H72.52L71.06 29.7H61.9L60.44 33H55.9L64 15ZM69.54 26.4L66.5 19.14L63.42 26.4H69.54Z" fill="url(#paint1_linear)"/>
  <path d="M82.32 18.84H93.96V22.32H86.52V25.98H93.3V29.28H86.52V33H82.32V18.84Z" fill="#0F172A"/>
  <path d="M98.15 18.84H103.37C105.41 18.84 107 19.38 108.13 20.46C109.25 21.52 109.81 22.92 109.81 24.66C109.81 26.42 109.25 27.83 108.13 28.89C107.01 29.95 105.42 30.48 103.37 30.48H102.35V33H98.15V18.84ZM103.13 27.3C104.03 27.3 104.72 27.07 105.19 26.61C105.65 26.15 105.89 25.52 105.89 24.72C105.89 23.92 105.65 23.29 105.19 22.83C104.72 22.36 104.03 22.13 103.13 22.13H102.35V27.3H103.13Z" fill="#0F172A"/>
  <path d="M112.4 25.92C112.4 23.84 113.12 22.08 114.56 20.64C116 19.18 117.81 18.45 120 18.45C122.18 18.45 123.99 19.18 125.44 20.64C126.88 22.08 127.6 23.84 127.6 25.92C127.6 28 126.88 29.77 125.44 31.23C123.99 32.67 122.18 33.39 120 33.39C117.81 33.39 116 32.67 114.56 31.23C113.12 29.77 112.4 28 112.4 25.92ZM123.32 25.92C123.32 24.91 123.01 24.07 122.39 23.4C121.77 22.73 120.98 22.39 120 22.39C119.01 22.39 118.22 22.73 117.61 23.4C116.99 24.07 116.68 24.91 116.68 25.92C116.68 26.93 116.99 27.77 117.61 28.44C118.22 29.11 119.01 29.44 120 29.44C120.98 29.44 121.77 29.11 122.39 28.44C123.01 27.77 123.32 26.93 123.32 25.92Z" fill="#0F172A"/>
  <path d="M130.8 18.84H135L142.26 27.72V18.84H146.46V33H142.26L135 24.12V33H130.8V18.84Z" fill="#0F172A"/>
  <path d="M150.15 18.84H154.35V29.4H161.13V33H150.15V18.84Z" fill="#0F172A"/>
  <defs>
    <linearGradient id="paint0_linear" x1="4" y1="5" x2="42" y2="44" gradientUnits="userSpaceOnUse">
      <stop stop-color="#6366F1"/>
      <stop offset="0.54" stop-color="#8B5CF6"/>
      <stop offset="1" stop-color="#06B6D4"/>
    </linearGradient>
    <linearGradient id="paint1_linear" x1="57" y1="17" x2="76" y2="31" gradientUnits="userSpaceOnUse">
      <stop stop-color="#6366F1"/>
      <stop offset="1" stop-color="#06B6D4"/>
    </linearGradient>
  </defs>
</svg>
